Coordinates
version=1
nRows=15
nColumns=42
inDegrees=yes

Units are S.I. units (second, meters, Newtons, ...)
If the header above contains a line with 'inDegrees', this indicates whether rotational values are in degrees (yes) or radians (no).

endheader
time	pelvis_tilt	pelvis_list	pelvis_rotation	pelvis_tx	pelvis_ty	pelvis_tz	hip_flexion_r	hip_adduction_r	hip_rotation_r	knee_angle_r	knee_adduction_r	knee_angle_r_beta	ankle_angle_r	subtalar_angle_r	mtp_angle_r	hip_flexion_l	hip_adduction_l	hip_rotation_l	knee_angle_l	knee_adduction_l	knee_angle_l_beta	ankle_angle_l	subtalar_angle_l	mtp_angle_l	lumbar_extension	lumbar_bending	lumbar_rotation	arm_flex_r	arm_add_r	arm_rot_r	elbow_flex_r	pro_sup_r	wrist_flex_r	wrist_dev_r	arm_flex_l	arm_add_l	arm_rot_l	elbow_flex_l	pro_sup_l	wrist_flex_l	wrist_dev_l
      2.16000000	      8.06583076	      0.25124825	      3.82455738	     -0.11268435	      0.89344950	      0.21513083	     18.58920036	     -2.02239978	    -19.97871854	     53.49701346	     -8.96582331	      0.93369902	      2.79103918	    -12.61922418	     -7.50062889	     -9.10753298	      8.13994807	      2.55600104	     11.89269997	     -6.17752443	      0.20756677	     19.47500076	      4.30042755	     -7.50062889	    -28.15294784	      1.06174008	      0.02530492	      6.64860327	    -15.58298626	     14.01664264	     35.39963681	     90.00000001	      0.00000000	      0.00000000	     14.42235728	    -17.22843243	     15.84873004	     43.77624949	     90.00000001	      0.00000000	      0.00000000
      2.17000000	      8.01272480	      0.15953253	      4.26916755	     -0.10129562	      0.89271407	      0.21434171	     19.31689336	     -1.95105682	    -20.03539056	     50.35454725	     -8.38558635	      0.87885264	      3.20124311	    -12.17374349	     -7.50059948	    -10.15683518	      7.87367063	      2.46427084	     11.36473266	     -6.21291015	      0.19835200	     20.18988788	      5.35675646	     -7.50059948	    -28.15147582	      1.36245910	     -0.39342336	      5.93897077	    -15.37936529	     13.97050645	     35.13778776	     90.00000001	      0.00000000	      0.00000000	     15.40044862	    -17.71985371	     15.71524347	     45.00189944	     90.00000001	      0.00000000	      0.00000000
      2.18000000	      7.79636042	      0.15450890	      4.68348427	     -0.09019477	      0.89146478	      0.21348806	     20.16852568	     -2.03626172	    -19.95853186	     47.14388854	     -7.67169413	      0.82281608	      3.69233945	    -11.68561937	     -7.50058339	    -10.88978361	      7.76849740	      2.54654943	     11.10669278	     -6.27462546	      0.19384836	     20.87879479	      5.92095759	     -7.50058339	    -28.01402549	      1.55714049	     -0.80263889	      5.28031981	    -15.15786978	     13.91772431	     34.79279313	     90.00000001	      0.00000000	      0.00000000	     16.39208297	    -18.16485493	     15.56598714	     46.18781505	     90.00000001	      0.00000000	      0.00000000
      2.19000000	      7.84509105	      0.08247447	      5.08515218	     -0.07879782	      0.89052919	      0.21299350	     20.51743527	     -1.91252992	    -20.44853464	     43.48824837	     -7.41641950	      0.75901312	      4.00599519	    -10.92378546	     -7.50056434	    -12.00597267	      7.42998612	      2.54714160	     10.67794929	     -6.15998873	      0.18636537	     21.56805169	      6.68439159	     -7.50056434	    -28.15907846	      1.80517836	     -1.17184880	      4.67058024	    -14.88278610	     13.74351216	     34.46700707	     90.00000001	      0.00000000	      0.00000000	     17.42778728	    -18.63959118	     15.40497197	     47.28390148	     90.00000001	      0.00000000	      0.00000000
      2.20000000	      7.78889126	      0.04820042	      5.43742734	     -0.06757104	      0.88924236	      0.21254808	     20.91882295	     -1.80968353	    -21.15128704	     39.69767629	     -7.33030063	      0.69285516	      4.45633509	     -9.63516465	     -7.50054437	    -12.88659992	      7.22157880	      2.53624511	     10.46862092	     -6.17243855	      0.18271190	     22.26925525	      7.33163947	     -7.50054437	    -28.22410096	      1.99306932	     -1.46855318	      4.07103031	    -14.58267387	     13.52675334	     34.16210402	     90.00000001	      0.00000000	      0.00000000	     18.49016484	    -19.00941853	     15.26450282	     48.28157174	     90.00000001	      0.00000000	      0.00000000
      2.21000000	      7.77424326	      0.04259407	      5.72990368	     -0.05599177	      0.88767874	      0.21225978	     21.24841056	     -1.82056527	    -22.62888362	     35.99505227	     -7.54627887	      0.62823218	      5.42995609	     -6.64594676	     -7.50050249	    -13.78951189	      7.00496128	      2.31216121	     10.32224142	     -6.15858332	      0.18015710	     22.97133373	      8.36237458	     -7.50050249	    -28.27595086	      2.11640440	     -1.67229335	      3.37242389	    -14.31129285	     13.08290390	     33.90919813	     90.00000001	      0.00000000	      0.00000000	     19.55326657	    -19.37051203	     15.15047053	     49.17269951	     90.00000001	      0.00000000	      0.00000000
      2.22000000	      7.61678611	      0.07322071	      5.98463713	     -0.04467265	      0.88576067	      0.21200409	     21.67109892	     -1.83565966	    -23.87925084	     32.29950080	     -7.57669960	      0.56373264	      6.35639411	     -3.69820502	     -7.50045660	    -14.39797556	      6.89557689	      2.21682211	     10.45306931	     -6.16001158	      0.18244048	     23.76889343	      8.84800191	     -7.50045660	    -28.21742686	      2.19368410	     -1.87866798	      2.79687156	    -14.00867250	     12.75976292	     33.53710328	     90.00000001	      0.00000000	      0.00000000	     20.54957300	    -19.67264330	     15.01024903	     50.04444425	     90.00000001	      0.00000000	      0.00000000
      2.23000000	      7.45711312	      0.13428535	      6.16863546	     -0.03332333	      0.88367002	      0.21199764	     22.09789576	     -1.86533400	    -25.31309959	     28.79866919	     -7.62967770	      0.50263160	      7.25970836	     -0.29493594	     -7.50040817	    -14.97749559	      6.83128488	      2.12409051	     10.65377450	     -6.16398291	      0.18594344	     24.51659566	      9.12441245	     -7.50040817	    -28.16444367	      2.19286093	     -2.02489415	      2.25709098	    -13.68358819	     12.38862943	     33.18860473	     90.00000001	      0.00000000	      0.00000000	     21.52897341	    -19.94281838	     14.84271295	     50.83667150	     90.00000001	      0.00000000	      0.00000000
      2.24000000	      7.28950200	      0.15144567	      6.29481091	     -0.02183848	      0.88142085	      0.21208056	     22.46873767	     -1.81099855	    -26.61273857	     25.48394435	     -7.52195413	      0.44477874	      7.88994037	      2.98392695	     -7.50037238	    -15.54334226	      6.76614756	      2.09811189	     10.90372428	     -6.22972925	      0.19030589	     25.20697981	      9.30556688	     -7.50037238	    -28.09069312	      2.22642891	     -2.04915490	      1.69362905	    -13.39503190	     12.00370786	     32.84447282	     90.00000001	      0.00000000	      0.00000000	     22.44136143	    -20.10417133	     14.62617177	     51.61039596	     90.00000001	      0.00000000	      0.00000000
      2.25000000	      6.76027781	      0.39687292	      6.25757934	     -0.01092374	      0.87845416	      0.21210713	     23.38169799	     -1.97724633	    -26.78852973	     22.81304953	     -7.09167986	      0.39816283	      7.99545026	      4.08294028	     -7.50036525	    -15.57132852	      7.21256661	      2.11860804	     11.41099944	     -6.56372551	      0.19915951	     25.76329783	      9.12836985	     -7.50036525	    -27.70212366	      1.96626145	     -2.11355994	      1.24238324	    -13.21185003	     11.95234654	     32.60292850	     90.00000001	      0.00000000	      0.00000000	     23.29021242	    -20.24809077	     14.37454888	     52.26323331	     90.00000001	      0.00000000	      0.00000000
      2.26000000	      6.84607563	      0.32320007	      6.40750325	      0.00136809	      0.87635250	      0.21247441	     23.46067178	     -1.89650542	    -29.18498391	     20.29726216	     -7.25192202	      0.35425405	      9.06128831	     10.03318150	     -7.50033461	    -16.44129665	      6.81770477	      1.86562225	     11.68444850	     -6.32355355	      0.20393210	     26.54363533	      9.51208389	     -7.50033461	    -27.81171290	      2.10534641	     -2.07683737	      0.72329381	    -12.85104603	     11.20062543	     32.19844351	     90.00000001	      0.00000000	      0.00000000	     24.00258306	    -20.33386333	     14.03211882	     53.02014296	     90.00000001	      0.00000000	      0.00000000
      2.27000000	      6.63043791	      0.38288074	      6.43827231	      0.01322546	      0.87369731	      0.21280400	     23.98125344	     -1.89098531	    -30.28189121	     18.49820385	     -7.11933186	      0.32285456	      9.44050601	     13.18970190	     -7.50030927	    -16.83349819	      6.79948505	      1.60555495	     12.22756431	     -6.37871849	      0.21341126	     27.18218017	      9.62276986	     -7.50030927	    -27.64979038	      2.06069044	     -2.05957309	      0.29835813	    -12.60871447	     10.89514606	     31.87143262	     90.00000001	      0.00000000	      0.00000000	     24.61761057	    -20.37516514	     13.58919188	     53.70843227	     90.00000001	      0.00000000	      0.00000000
      2.28000000	      6.30243951	      0.57400203	      6.29790989	      0.02497559	      0.87082909	      0.21331876	     24.80735772	     -2.04026486	    -30.41700217	     17.75230175	     -6.75361087	      0.30983612	      9.50846879	     13.30075797	     -7.50030654	    -17.19985996	      7.01134796	      1.48757365	     12.60874127	     -6.45691971	      0.22006405	     27.31073342	      9.53810634	     -7.50030654	    -27.39645443	      1.80581202	     -1.89162306	     -0.14408779	    -12.48547124	     10.92612170	     31.70225115	     90.00000001	      0.00000000	      0.00000000	     25.26428731	    -20.39745122	     13.37733218	     54.21029637	     90.00000001	      0.00000000	      0.00000000
      2.29000000	      6.28257665	      0.44566910	      6.49829400	      0.03758458	      0.86845126	      0.21366280	     24.97372700	     -1.76022910	    -31.80680789	     16.70456119	     -7.08204642	      0.29154959	     10.01950231	     18.21202002	     -7.50028178	    -17.68132529	      6.63227046	      1.01322547	     13.44187886	     -6.47660558	      0.23460504	     28.30784718	      9.87775812	     -7.50028178	    -27.35683339	      2.04012979	     -1.99289480	     -0.41716160	    -12.18744306	     10.37583890	     31.21784808	     90.00000001	      0.00000000	      0.00000000	     25.49409241	    -20.38644906	     12.61187998	     55.07793714	     90.00000001	      0.00000000	      0.00000000
      2.30000000	      6.18766823	      0.47943298	      6.48598465	      0.05000258	      0.86607853	      0.21420250	     25.32405408	     -1.54728239	    -31.54561776	     16.60095554	     -7.11646449	      0.28974133	      9.97329903	     18.43050626	     -7.50027860	    -18.23091281	      6.55995119	      0.95966714	     14.05451902	     -6.52887514	      0.24529763	     28.53163359	      9.74789766	     -7.50027860	    -27.27978911	      2.02358345	     -1.89809703	     -0.71188948	    -12.09741978	     10.37742110	     30.98986978	     90.00000001	      0.00000000	      0.00000000	     25.82953698	    -20.38011197	     12.30454611	     55.60897936	     90.00000001	      0.00000000	      0.00000000
